<?xml version="1.0" encoding="UTF-8"?> <svg xmlns="http://www.w3.org/2000/svg" width="95" height="128" viewBox="0 0 95 128" fill="none"><g clip-path="url(#clip0_1352_1340)"><path d="M79.0308 15.7289V14.7407L69.1906 12.1879V9.33305L47.4859 0L25.8094 9.33305V12.1879L15.9692 14.7407V15.7289H0L11.8082 99.8911L22.3232 104.42V108.016L47.4859 128L72.6768 108.016V104.42L83.1637 99.8911L95 15.7289H79.0308Z" fill="#455560"></path><path d="M75.2915 19.3524V17.5132L65.4513 14.9878V11.6938L47.4859 3.95288L29.5487 11.6938V14.9878L19.7085 17.5132V19.3524H4.27344L15.2382 97.3932L26.0624 102.06V106.287L47.4859 123.306L68.9375 106.287V102.06L79.7617 97.3932L90.6984 19.3524H75.2915Z" fill="white"></path><path d="M50.0444 102.307L53.7556 99.699V59.21L47.7671 43.9478L40.3448 61.3237L40.6541 101.538L46.2489 102.307H50.0444Z" fill="white"></path><path d="M40.4291 101.538L41.0758 59.457L47.5141 43.0693L54.3741 60.1982L55.4424 101.538L67.082 93.907L64.6641 26.3247L47.486 34.0931L39.7263 31.0461L29.7455 27.0659L27.918 94.5109L40.4291 101.538Z" fill="#FFC425"></path><path d="M42.7908 62.5313H44.4777V99.0949L42.7908 98.4087V62.5313ZM50.5505 99.0675V62.5313H52.2374V98.4087L50.5505 99.0675ZM48.3575 99.9459L47.4859 100.303L46.6706 99.9733V62.5313H48.3575V99.9459ZM44.309 55.0649L46.8393 48.8612L47.7109 46.72L48.4981 48.8612L50.8316 55.0649L52.2374 58.7981H42.7908L44.309 55.0649ZM32.8943 48.8612V31.046L47.4859 36.1243L62.0775 31.046V48.8612V55.0649V94.4558L59.1536 95.6362V77.574H55.9766V60.1706L54.0367 55.0649L51.6751 48.8612L47.5141 37.9085L43.3812 48.8612L41.0476 55.0649L39.0796 60.3079V77.574H35.8745V95.6362L32.9506 94.4558V55.0649V48.8612H32.8943ZM40.4291 12.6819H50.9722C53.0527 12.9564 54.7958 14.1916 55.7798 15.8935C56.314 16.8268 56.6233 17.8699 56.6233 19.0229C56.6233 20.3679 56.2015 21.6032 55.4706 22.6188C55.4424 22.6737 55.4143 22.7012 55.3581 22.7561C54.1492 24.3482 52.2092 25.4187 50.0163 25.4187H47.739L46.755 22.7561L46.6987 22.6188L45.9959 20.7248H50.0163C51.0003 20.7248 51.7875 19.9562 51.7875 19.0229C51.7875 18.0895 51.0003 17.3209 50.0163 17.3209H45.2649V22.6463V22.7835V28.7951V30.25H40.4291V28.7951V22.7286V22.5914V15.5641V12.6819ZM74.6449 22.6188L71.9458 90.256V55.0649V22.6188V20.0385L62.1057 17.5131V13.8073L47.5141 7.52124L32.8943 13.8073V17.4856L23.0542 20.0385V22.6188V55.0923V90.256L20.3551 22.6188H8.12518L18.3028 95.1695L29.4081 99.9459V104.75L47.4859 119.106L65.5638 104.75V99.9459L76.6691 95.1695L86.8467 22.6188H74.6449Z" fill="#8B0E04"></path></g><defs><clipPath id="clip0_1352_1340"><rect width="95" height="128" fill="white"></rect></clipPath></defs></svg> 